<svg xmlns="http://www.w3.org/2000/svg" xmlns:xlink="http://www.w3.org/1999/xlink" width="500" zoomAndPan="magnify" viewBox="0 0 375 157.92" height="200" preserveAspectRatio="xMidYMid meet" version="1.0"><defs><g/><clipPath id="e795feeef5"><rect x="0" width="368" y="0" height="116"/></clipPath><clipPath id="1eccb53a46"><path d="M 229.242188 28 L 266 28 L 266 65.21875 L 229.242188 65.21875 Z M 229.242188 28 " clip-rule="nonzero"/></clipPath><clipPath id="14a9b6d840"><path d="M 261 24 L 278.714844 24 L 278.714844 43 L 261 43 Z M 261 24 " clip-rule="nonzero"/></clipPath><clipPath id="55f72986f0"><path d="M 183.746094 113.695312 L 274.449219 113.695312 L 274.449219 121.941406 L 183.746094 121.941406 Z M 183.746094 113.695312 " clip-rule="nonzero"/></clipPath></defs><g transform="matrix(1, 0, 0, 1, 2, 15)"><g clip-path="url(#e795feeef5)"><g fill="#007acc" fill-opacity="1"><g transform="translate(0.650796, 89.978782)"><g><path d="M 25.40625 1.09375 C 22.539062 1.09375 19.765625 0.5625 17.078125 -0.5 C 14.398438 -1.570312 12.039062 -3.113281 10 -5.125 C 7.96875 -7.132812 6.34375 -9.613281 5.125 -12.5625 C 3.90625 -15.519531 3.296875 -18.890625 3.296875 -22.671875 C 3.296875 -26.441406 3.90625 -29.804688 5.125 -32.765625 C 6.34375 -35.722656 7.96875 -38.207031 10 -40.21875 C 12.039062 -42.226562 14.398438 -43.765625 17.078125 -44.828125 C 19.765625 -45.890625 22.539062 -46.421875 25.40625 -46.421875 C 28.269531 -46.421875 31.023438 -45.890625 33.671875 -44.828125 C 36.328125 -43.765625 38.675781 -42.226562 40.71875 -40.21875 C 42.757812 -38.207031 44.390625 -35.722656 45.609375 -32.765625 C 46.828125 -29.804688 47.4375 -26.441406 47.4375 -22.671875 C 47.4375 -18.890625 46.828125 -15.519531 45.609375 -12.5625 C 44.390625 -9.613281 42.757812 -7.132812 40.71875 -5.125 C 38.675781 -3.113281 36.328125 -1.570312 33.671875 -0.5 C 31.023438 0.5625 28.269531 1.09375 25.40625 1.09375 Z M 25.40625 -9.78125 C 28.144531 -9.78125 30.210938 -10.9375 31.609375 -13.25 C 33.015625 -15.5625 33.71875 -18.703125 33.71875 -22.671875 C 33.71875 -26.628906 33.015625 -29.765625 31.609375 -32.078125 C 30.210938 -34.390625 28.144531 -35.546875 25.40625 -35.546875 C 22.601562 -35.546875 20.515625 -34.390625 19.140625 -32.078125 C 17.773438 -29.765625 17.09375 -26.628906 17.09375 -22.671875 C 17.09375 -18.703125 17.773438 -15.5625 19.140625 -13.25 C 20.515625 -10.9375 22.601562 -9.78125 25.40625 -9.78125 Z M 25.40625 -9.78125 "/></g></g></g><g fill="#007acc" fill-opacity="1"><g transform="translate(47.626954, 89.978782)"><g><path d="M 5.9375 0 L 5.9375 -45.328125 L 16.90625 -45.328125 L 17.828125 -39.578125 L 18.1875 -39.578125 C 20.132812 -41.398438 22.265625 -42.992188 24.578125 -44.359375 C 26.898438 -45.734375 29.613281 -46.421875 32.71875 -46.421875 C 37.65625 -46.421875 41.234375 -44.804688 43.453125 -41.578125 C 45.679688 -38.347656 46.796875 -33.867188 46.796875 -28.140625 L 46.796875 0 L 33.359375 0 L 33.359375 -26.40625 C 33.359375 -29.695312 32.914062 -31.953125 32.03125 -33.171875 C 31.144531 -34.390625 29.726562 -35 27.78125 -35 C 26.070312 -35 24.609375 -34.617188 23.390625 -33.859375 C 22.171875 -33.097656 20.832031 -32.015625 19.375 -30.609375 L 19.375 0 Z M 5.9375 0 "/></g></g></g><g fill="#007acc" fill-opacity="1"><g transform="translate(96.156801, 89.978782)"><g><path d="M 26.234375 1.09375 C 23.003906 1.09375 19.988281 0.5625 17.1875 -0.5 C 14.382812 -1.570312 11.945312 -3.125 9.875 -5.15625 C 7.800781 -7.195312 6.1875 -9.679688 5.03125 -12.609375 C 3.875 -15.535156 3.296875 -18.890625 3.296875 -22.671875 C 3.296875 -26.316406 3.90625 -29.617188 5.125 -32.578125 C 6.34375 -35.535156 7.941406 -38.035156 9.921875 -40.078125 C 11.898438 -42.117188 14.164062 -43.6875 16.71875 -44.78125 C 19.28125 -45.875 21.929688 -46.421875 24.671875 -46.421875 C 27.898438 -46.421875 30.71875 -45.875 33.125 -44.78125 C 35.53125 -43.6875 37.539062 -42.160156 39.15625 -40.203125 C 40.769531 -38.253906 41.972656 -35.957031 42.765625 -33.3125 C 43.554688 -30.664062 43.953125 -27.785156 43.953125 -24.671875 C 43.953125 -23.453125 43.890625 -22.296875 43.765625 -21.203125 C 43.648438 -20.109375 43.53125 -19.285156 43.40625 -18.734375 L 16.265625 -18.734375 C 16.878906 -15.441406 18.234375 -13.019531 20.328125 -11.46875 C 22.429688 -9.914062 25.007812 -9.140625 28.0625 -9.140625 C 31.289062 -9.140625 34.546875 -10.144531 37.828125 -12.15625 L 42.3125 -4.015625 C 40 -2.429688 37.425781 -1.179688 34.59375 -0.265625 C 31.757812 0.640625 28.972656 1.09375 26.234375 1.09375 Z M 16.171875 -27.59375 L 32.53125 -27.59375 C 32.53125 -30.15625 31.953125 -32.226562 30.796875 -33.8125 C 29.640625 -35.394531 27.691406 -36.1875 24.953125 -36.1875 C 22.816406 -36.1875 20.941406 -35.484375 19.328125 -34.078125 C 17.710938 -32.679688 16.660156 -30.519531 16.171875 -27.59375 Z M 16.171875 -27.59375 "/></g></g></g><g fill="#007acc" fill-opacity="1"><g transform="translate(139.751405, 89.978782)"><g><path d="M 5.9375 16.8125 L 5.9375 -45.328125 L 16.90625 -45.328125 L 17.828125 -40.859375 L 18.1875 -40.859375 C 19.957031 -42.441406 21.953125 -43.765625 24.171875 -44.828125 C 26.398438 -45.890625 28.703125 -46.421875 31.078125 -46.421875 C 33.816406 -46.421875 36.28125 -45.875 38.46875 -44.78125 C 40.664062 -43.6875 42.523438 -42.132812 44.046875 -40.125 C 45.566406 -38.113281 46.738281 -35.691406 47.5625 -32.859375 C 48.382812 -30.023438 48.796875 -26.867188 48.796875 -23.390625 C 48.796875 -19.492188 48.265625 -16.035156 47.203125 -13.015625 C 46.140625 -10.003906 44.707031 -7.445312 42.90625 -5.34375 C 41.113281 -3.238281 39.070312 -1.640625 36.78125 -0.546875 C 34.5 0.546875 32.140625 1.09375 29.703125 1.09375 C 27.753906 1.09375 25.863281 0.679688 24.03125 -0.140625 C 22.207031 -0.960938 20.503906 -2.132812 18.921875 -3.65625 L 19.375 3.5625 L 19.375 16.8125 Z M 26.59375 -9.875 C 28.90625 -9.875 30.882812 -10.921875 32.53125 -13.015625 C 34.175781 -15.117188 35 -18.519531 35 -23.21875 C 35 -31.375 32.378906 -35.453125 27.140625 -35.453125 C 24.523438 -35.453125 21.9375 -34.082031 19.375 -31.34375 L 19.375 -12.796875 C 20.59375 -11.703125 21.8125 -10.941406 23.03125 -10.515625 C 24.25 -10.085938 25.4375 -9.875 26.59375 -9.875 Z M 26.59375 -9.875 "/></g></g></g><g fill="#864cbd" fill-opacity="1"><g transform="translate(188.377432, 89.978782)"><g><path d="M 17.359375 1.09375 C 15.285156 1.09375 13.410156 0.742188 11.734375 0.046875 C 10.066406 -0.648438 8.648438 -1.625 7.484375 -2.875 C 6.328125 -4.125 5.429688 -5.570312 4.796875 -7.21875 C 4.160156 -8.863281 3.84375 -10.660156 3.84375 -12.609375 C 3.84375 -17.359375 5.851562 -21.070312 9.875 -23.75 C 13.894531 -26.4375 20.382812 -28.238281 29.34375 -29.15625 C 29.21875 -31.164062 28.617188 -32.765625 27.546875 -33.953125 C 26.484375 -35.140625 24.703125 -35.734375 22.203125 -35.734375 C 20.253906 -35.734375 18.320312 -35.367188 16.40625 -34.640625 C 14.488281 -33.910156 12.429688 -32.90625 10.234375 -31.625 L 5.390625 -40.484375 C 8.316406 -42.253906 11.378906 -43.6875 14.578125 -44.78125 C 17.773438 -45.875 21.171875 -46.421875 24.765625 -46.421875 C 30.617188 -46.421875 35.082031 -44.757812 38.15625 -41.4375 C 41.226562 -38.125 42.765625 -32.960938 42.765625 -25.953125 L 42.765625 0 L 31.796875 0 L 30.890625 -4.65625 L 30.53125 -4.65625 C 28.570312 -2.957031 26.523438 -1.570312 24.390625 -0.5 C 22.265625 0.5625 19.921875 1.09375 17.359375 1.09375 Z M 21.9375 -9.328125 C 23.457031 -9.328125 24.765625 -9.660156 25.859375 -10.328125 C 26.960938 -10.992188 28.125 -11.9375 29.34375 -13.15625 L 29.34375 -21.109375 C 24.582031 -20.441406 21.285156 -19.46875 19.453125 -18.1875 C 17.628906 -16.90625 16.71875 -15.382812 16.71875 -13.625 C 16.71875 -12.15625 17.191406 -11.070312 18.140625 -10.375 C 19.085938 -9.675781 20.351562 -9.328125 21.9375 -9.328125 Z M 21.9375 -9.328125 "/></g></g></g><g fill="#864cbd" fill-opacity="1"><g transform="translate(232.794572, 89.978782)"><g><path d="M 5.9375 0 L 5.9375 -45.328125 L 19.375 -45.328125 L 19.375 0 Z M 12.609375 -52 C 10.359375 -52 8.5 -52.65625 7.03125 -53.96875 C 5.570312 -55.28125 4.84375 -56.96875 4.84375 -59.03125 C 4.84375 -61.101562 5.570312 -62.78125 7.03125 -64.0625 C 8.5 -65.34375 10.359375 -65.984375 12.609375 -65.984375 C 14.921875 -65.984375 16.789062 -65.34375 18.21875 -64.0625 C 19.65625 -62.78125 20.375 -61.101562 20.375 -59.03125 C 20.375 -56.96875 19.65625 -55.28125 18.21875 -53.96875 C 16.789062 -52.65625 14.921875 -52 12.609375 -52 Z M 12.609375 -52 "/></g></g></g><g fill="#007acc" fill-opacity="1"><g transform="translate(254.273599, 89.978782)"><g><path d="M 22.109375 19.28125 C 19.429688 19.28125 16.945312 19.050781 14.65625 18.59375 C 12.375 18.132812 10.363281 17.445312 8.625 16.53125 C 6.894531 15.625 5.539062 14.4375 4.5625 12.96875 C 3.59375 11.507812 3.109375 9.773438 3.109375 7.765625 C 3.109375 4.109375 5.269531 1.0625 9.59375 -1.375 L 9.59375 -1.734375 C 8.375 -2.523438 7.367188 -3.53125 6.578125 -4.75 C 5.785156 -5.96875 5.390625 -7.519531 5.390625 -9.40625 C 5.390625 -11.050781 5.875 -12.617188 6.84375 -14.109375 C 7.820312 -15.609375 9.046875 -16.875 10.515625 -17.90625 L 10.515625 -18.28125 C 8.929688 -19.375 7.515625 -20.941406 6.265625 -22.984375 C 5.015625 -25.023438 4.390625 -27.382812 4.390625 -30.0625 C 4.390625 -32.8125 4.90625 -35.203125 5.9375 -37.234375 C 6.976562 -39.273438 8.363281 -40.984375 10.09375 -42.359375 C 11.832031 -43.734375 13.828125 -44.753906 16.078125 -45.421875 C 18.335938 -46.085938 20.6875 -46.421875 23.125 -46.421875 C 25.800781 -46.421875 28.144531 -46.054688 30.15625 -45.328125 L 46.703125 -45.328125 L 46.703125 -35.546875 L 39.484375 -35.546875 C 39.910156 -34.878906 40.257812 -34.023438 40.53125 -32.984375 C 40.800781 -31.953125 40.9375 -30.828125 40.9375 -29.609375 C 40.9375 -26.992188 40.476562 -24.722656 39.5625 -22.796875 C 38.65625 -20.878906 37.394531 -19.296875 35.78125 -18.046875 C 34.164062 -16.796875 32.273438 -15.863281 30.109375 -15.25 C 27.953125 -14.644531 25.625 -14.34375 23.125 -14.34375 C 21.351562 -14.34375 19.523438 -14.648438 17.640625 -15.265625 C 17.023438 -14.773438 16.597656 -14.285156 16.359375 -13.796875 C 16.117188 -13.304688 16 -12.664062 16 -11.875 C 16 -10.71875 16.5 -9.863281 17.5 -9.3125 C 18.507812 -8.769531 20.289062 -8.5 22.84375 -8.5 L 30.15625 -8.5 C 35.757812 -8.5 40.039062 -7.597656 43 -5.796875 C 45.957031 -4.003906 47.4375 -1.066406 47.4375 3.015625 C 47.4375 5.390625 46.84375 7.566406 45.65625 9.546875 C 44.46875 11.523438 42.773438 13.226562 40.578125 14.65625 C 38.378906 16.09375 35.726562 17.222656 32.625 18.046875 C 29.519531 18.867188 26.015625 19.28125 22.109375 19.28125 Z M 23.125 -22.484375 C 24.882812 -22.484375 26.359375 -23.109375 27.546875 -24.359375 C 28.742188 -25.609375 29.34375 -27.507812 29.34375 -30.0625 C 29.34375 -32.4375 28.742188 -34.25 27.546875 -35.5 C 26.359375 -36.75 24.882812 -37.375 23.125 -37.375 C 21.351562 -37.375 19.875 -36.765625 18.6875 -35.546875 C 17.5 -34.328125 16.90625 -32.5 16.90625 -30.0625 C 16.90625 -27.507812 17.5 -25.609375 18.6875 -24.359375 C 19.875 -23.109375 21.351562 -22.484375 23.125 -22.484375 Z M 24.21875 10.875 C 27.257812 10.875 29.753906 10.335938 31.703125 9.265625 C 33.660156 8.203125 34.640625 6.878906 34.640625 5.296875 C 34.640625 3.898438 34.046875 2.957031 32.859375 2.46875 C 31.671875 1.976562 29.945312 1.734375 27.6875 1.734375 L 23.03125 1.734375 C 21.445312 1.734375 20.164062 1.6875 19.1875 1.59375 C 18.21875 1.507812 17.367188 1.375 16.640625 1.1875 C 14.992188 2.644531 14.171875 4.140625 14.171875 5.671875 C 14.171875 7.367188 15.082031 8.660156 16.90625 9.546875 C 18.738281 10.429688 21.175781 10.875 24.21875 10.875 Z M 24.21875 10.875 "/></g></g></g><g fill="#007acc" fill-opacity="1"><g transform="translate(299.330492, 89.978782)"><g><path d="M 26.234375 1.09375 C 23.003906 1.09375 19.988281 0.5625 17.1875 -0.5 C 14.382812 -1.570312 11.945312 -3.125 9.875 -5.15625 C 7.800781 -7.195312 6.1875 -9.679688 5.03125 -12.609375 C 3.875 -15.535156 3.296875 -18.890625 3.296875 -22.671875 C 3.296875 -26.316406 3.90625 -29.617188 5.125 -32.578125 C 6.34375 -35.535156 7.941406 -38.035156 9.921875 -40.078125 C 11.898438 -42.117188 14.164062 -43.6875 16.71875 -44.78125 C 19.28125 -45.875 21.929688 -46.421875 24.671875 -46.421875 C 27.898438 -46.421875 30.71875 -45.875 33.125 -44.78125 C 35.53125 -43.6875 37.539062 -42.160156 39.15625 -40.203125 C 40.769531 -38.253906 41.972656 -35.957031 42.765625 -33.3125 C 43.554688 -30.664062 43.953125 -27.785156 43.953125 -24.671875 C 43.953125 -23.453125 43.890625 -22.296875 43.765625 -21.203125 C 43.648438 -20.109375 43.53125 -19.285156 43.40625 -18.734375 L 16.265625 -18.734375 C 16.878906 -15.441406 18.234375 -13.019531 20.328125 -11.46875 C 22.429688 -9.914062 25.007812 -9.140625 28.0625 -9.140625 C 31.289062 -9.140625 34.546875 -10.144531 37.828125 -12.15625 L 42.3125 -4.015625 C 40 -2.429688 37.425781 -1.179688 34.59375 -0.265625 C 31.757812 0.640625 28.972656 1.09375 26.234375 1.09375 Z M 16.171875 -27.59375 L 32.53125 -27.59375 C 32.53125 -30.15625 31.953125 -32.226562 30.796875 -33.8125 C 29.640625 -35.394531 27.691406 -36.1875 24.953125 -36.1875 C 22.816406 -36.1875 20.941406 -35.484375 19.328125 -34.078125 C 17.710938 -32.679688 16.660156 -30.519531 16.171875 -27.59375 Z M 16.171875 -27.59375 "/></g></g></g><g fill="#007acc" fill-opacity="1"><g transform="translate(342.925091, 89.978782)"><g><path d="M 13.703125 1.09375 C 11.390625 1.09375 9.457031 0.285156 7.90625 -1.328125 C 6.351562 -2.941406 5.578125 -4.9375 5.578125 -7.3125 C 5.578125 -9.75 6.351562 -11.773438 7.90625 -13.390625 C 9.457031 -15.003906 11.390625 -15.8125 13.703125 -15.8125 C 16.023438 -15.8125 17.960938 -15.003906 19.515625 -13.390625 C 21.066406 -11.773438 21.84375 -9.75 21.84375 -7.3125 C 21.84375 -4.9375 21.066406 -2.941406 19.515625 -1.328125 C 17.960938 0.285156 16.023438 1.09375 13.703125 1.09375 Z M 13.703125 1.09375 "/></g></g></g></g></g><g clip-path="url(#1eccb53a46)"><path fill="#007acc" d="M 265.363281 46.523438 C 265.324219 46.492188 265.28125 46.464844 265.238281 46.4375 L 265.203125 46.421875 C 265.195312 46.417969 265.183594 46.414062 265.171875 46.410156 L 265.136719 46.394531 C 265.125 46.390625 265.117188 46.390625 265.109375 46.386719 C 262.226562 45.429688 259.355469 44.4375 256.507812 43.375 C 254.347656 42.582031 252.550781 40.855469 251.691406 38.714844 C 251.628906 38.558594 251.566406 38.394531 251.511719 38.230469 C 250.773438 36.035156 249.824219 33.117188 249.089844 30.90625 C 249.007812 30.65625 248.761719 29.9375 248.683594 29.703125 C 248.683594 29.703125 248.652344 29.605469 248.652344 29.605469 C 248.578125 29.359375 248.414062 29.140625 248.1875 29.007812 C 247.824219 28.792969 247.335938 28.832031 247.011719 29.101562 C 246.890625 29.203125 246.792969 29.335938 246.726562 29.480469 C 246.425781 30.230469 246.128906 30.992188 245.835938 31.742188 C 245.039062 33.8125 244.210938 35.988281 243.4375 38.0625 C 243.066406 39.042969 242.515625 39.949219 241.808594 40.722656 C 241.015625 41.589844 240.035156 42.285156 238.949219 42.742188 C 238.683594 42.855469 238.070312 43.078125 237.789062 43.191406 C 235.453125 44.078125 232.417969 45.230469 230.097656 46.121094 C 229.441406 46.386719 229.25 47.222656 229.699219 47.753906 C 229.820312 47.894531 229.980469 48 230.15625 48.0625 C 233.003906 49.074219 235.910156 50.070312 238.765625 51.046875 C 239.277344 51.222656 239.777344 51.449219 240.246094 51.722656 C 241.671875 52.542969 242.839844 53.804688 243.554688 55.285156 C 243.660156 55.5 243.757812 55.722656 243.84375 55.949219 C 244.902344 58.738281 245.941406 61.566406 246.921875 64.382812 C 246.941406 64.445312 246.972656 64.539062 247 64.597656 C 247.175781 65 247.664062 65.15625 248.050781 64.960938 C 248.179688 64.894531 248.289062 64.789062 248.363281 64.660156 L 248.382812 64.625 C 248.386719 64.613281 248.394531 64.601562 248.398438 64.589844 L 248.414062 64.554688 L 248.433594 64.503906 C 249.546875 61.703125 250.710938 58.871094 251.800781 56.0625 C 251.996094 55.570312 252.234375 55.09375 252.515625 54.644531 C 253.21875 53.519531 254.1875 52.570312 255.320312 51.886719 C 255.6875 51.664062 256.074219 51.46875 256.472656 51.304688 C 259.175781 50.265625 261.921875 49.15625 264.601562 48.046875 L 264.992188 47.886719 L 265.089844 47.847656 L 265.136719 47.828125 C 265.257812 47.78125 265.371094 47.703125 265.457031 47.601562 C 265.726562 47.289062 265.6875 46.785156 265.363281 46.523438 Z M 265.363281 46.523438 " fill-opacity="1" fill-rule="nonzero"/></g><path fill="#007acc" d="M 247.542969 22.414062 C 247.585938 22.449219 247.640625 22.476562 247.691406 22.496094 C 248.503906 22.769531 249.320312 23.035156 250.136719 23.300781 C 250.519531 23.425781 250.886719 23.597656 251.226562 23.816406 C 251.992188 24.308594 252.613281 25.035156 252.976562 25.875 C 253.09375 26.160156 253.191406 26.453125 253.296875 26.746094 C 253.511719 27.351562 253.714844 27.960938 253.914062 28.574219 C 253.933594 28.628906 253.964844 28.683594 254.007812 28.722656 C 254.183594 28.890625 254.476562 28.839844 254.589844 28.632812 C 254.9375 27.824219 255.277344 27.011719 255.605469 26.195312 C 256.078125 25.015625 257.003906 24.027344 258.148438 23.472656 C 258.214844 23.441406 258.285156 23.410156 258.351562 23.378906 C 258.789062 23.195312 259.6875 22.804688 260.140625 22.605469 L 260.714844 22.359375 C 260.734375 22.347656 260.769531 22.332031 260.792969 22.324219 C 260.988281 22.230469 261.019531 21.953125 260.847656 21.820312 C 260.820312 21.800781 260.785156 21.78125 260.75 21.773438 C 259.933594 21.511719 259.121094 21.230469 258.320312 20.933594 C 257.066406 20.472656 256.050781 19.441406 255.601562 18.183594 C 255.570312 18.089844 255.535156 17.996094 255.507812 17.898438 C 255.257812 17.078125 255.003906 16.226562 254.722656 15.421875 C 254.53125 14.992188 253.921875 15.019531 253.757812 15.453125 C 253.523438 16.039062 253.277344 16.6875 253.046875 17.28125 C 252.90625 17.640625 252.773438 18.046875 252.589844 18.390625 C 252.070312 19.394531 251.183594 20.210938 250.128906 20.628906 C 249.417969 20.910156 248.390625 21.300781 247.679688 21.582031 C 247.605469 21.613281 247.539062 21.65625 247.484375 21.714844 C 247.304688 21.917969 247.328125 22.246094 247.542969 22.414062 Z M 247.542969 22.414062 " fill-opacity="1" fill-rule="nonzero"/><g clip-path="url(#14a9b6d840)"><path fill="#007acc" d="M 278.183594 33.257812 C 277.148438 32.941406 276.121094 32.597656 275.105469 32.21875 C 273.546875 31.644531 272.292969 30.34375 271.765625 28.769531 C 271.675781 28.519531 271.519531 27.929688 271.4375 27.660156 C 271.214844 26.894531 270.988281 26.132812 270.742188 25.375 C 270.734375 25.347656 270.722656 25.320312 270.710938 25.292969 C 270.421875 24.65625 269.523438 24.703125 269.285156 25.351562 C 268.882812 26.34375 268.496094 27.34375 268.113281 28.347656 C 268.03125 28.566406 267.933594 28.78125 267.824219 28.988281 C 267.285156 30.035156 266.425781 30.914062 265.386719 31.472656 C 265.230469 31.558594 265.066406 31.632812 264.90625 31.703125 C 264.785156 31.753906 264.152344 32.003906 264.011719 32.058594 C 263.453125 32.277344 262.25 32.746094 261.714844 32.96875 C 261.449219 33.089844 261.28125 33.378906 261.308594 33.667969 C 261.328125 33.941406 261.523438 34.195312 261.785156 34.277344 C 262.804688 34.613281 263.828125 34.933594 264.851562 35.253906 C 265.324219 35.402344 265.785156 35.609375 266.207031 35.878906 C 267.164062 36.476562 267.9375 37.378906 268.386719 38.421875 C 268.425781 38.507812 268.460938 38.597656 268.496094 38.683594 C 268.863281 39.691406 269.199219 40.710938 269.519531 41.730469 C 269.527344 41.757812 269.539062 41.796875 269.546875 41.820312 C 269.6875 42.195312 270.183594 42.269531 270.4375 41.972656 C 270.484375 41.925781 270.515625 41.863281 270.539062 41.804688 L 270.578125 41.714844 C 270.992188 40.761719 271.414062 39.808594 271.808594 38.847656 C 271.902344 38.625 272.003906 38.40625 272.121094 38.195312 C 272.234375 37.988281 272.363281 37.78125 272.5 37.585938 C 273.171875 36.628906 274.109375 35.855469 275.175781 35.375 C 276.144531 34.949219 277.1875 34.464844 278.15625 34.03125 L 278.175781 34.019531 L 278.191406 34.011719 C 278.25 33.988281 278.300781 33.949219 278.34375 33.898438 C 278.523438 33.691406 278.441406 33.351562 278.183594 33.257812 Z M 278.183594 33.257812 " fill-opacity="1" fill-rule="nonzero"/></g><g clip-path="url(#55f72986f0)"><path fill="#007acc" d="M 188.8125 117.6875 C 195.703125 116.722656 204.402344 115.988281 214.898438 115.492188 C 224.5 115.046875 230.507812 114.796875 232.929688 114.742188 C 258.957031 114.21875 272.402344 113.878906 273.269531 113.722656 C 273.117188 113.75 272.996094 113.835938 272.902344 113.984375 L 273.46875 114.933594 L 262.761719 115.710938 L 262.75 115.710938 L 243.542969 116.738281 L 243.546875 116.738281 C 241.605469 116.855469 237.753906 117.136719 231.996094 117.574219 L 232 117.574219 L 231.996094 117.574219 C 227.992188 117.878906 224.757812 118.160156 222.289062 118.414062 L 222.292969 118.414062 C 215.035156 119.210938 203.234375 120.433594 186.894531 122.085938 L 186.886719 122.085938 C 185.578125 122.203125 184.796875 122.25 184.535156 122.222656 C 184.152344 122.183594 183.945312 121.992188 183.910156 121.640625 L 183.914062 121.640625 C 183.882812 121.320312 184.035156 121.09375 184.371094 120.96875 C 184.703125 120.84375 186.066406 120.589844 188.457031 120.207031 C 188.464844 120.207031 188.472656 120.203125 188.480469 120.203125 C 199.734375 118.839844 215.238281 118.375 234.992188 118.8125 C 235.335938 118.820312 235.605469 119.101562 235.597656 119.445312 C 235.589844 119.785156 235.308594 120.054688 234.964844 120.046875 C 215.269531 119.613281 199.824219 120.074219 188.628906 121.429688 L 188.652344 121.425781 C 186.34375 121.796875 185.058594 122.03125 184.804688 122.125 C 185.058594 122.03125 185.171875 121.832031 185.144531 121.53125 C 185.113281 121.203125 184.953125 121.023438 184.660156 120.992188 C 184.839844 121.011719 185.546875 120.964844 186.777344 120.855469 L 186.769531 120.855469 C 203.109375 119.203125 214.90625 117.980469 222.160156 117.183594 L 222.164062 117.183594 C 224.640625 116.929688 227.886719 116.648438 231.902344 116.34375 L 231.898438 116.34375 L 231.902344 116.34375 C 237.667969 115.902344 241.523438 115.625 243.472656 115.503906 L 243.476562 115.503906 L 262.683594 114.476562 L 262.671875 114.476562 L 273.378906 113.703125 C 273.613281 113.683594 273.835938 113.800781 273.953125 114 C 274.074219 114.203125 274.070312 114.453125 273.945312 114.652344 C 273.84375 114.808594 273.691406 114.90625 273.484375 114.941406 C 272.554688 115.105469 259.042969 115.453125 232.957031 115.976562 C 230.546875 116.03125 224.546875 116.28125 214.957031 116.726562 C 204.496094 117.222656 195.839844 117.949219 188.980469 118.910156 C 188.644531 118.957031 188.332031 118.722656 188.285156 118.382812 C 188.238281 118.046875 188.472656 117.734375 188.8125 117.6875 Z M 188.8125 117.6875 " fill-opacity="0.996" fill-rule="nonzero"/></g></svg>