<svg xmlns="http://www.w3.org/2000/svg" xmlns:xlink="http://www.w3.org/1999/xlink" width="500" zoomAndPan="magnify" viewBox="0 0 375 157.92" height="200" preserveAspectRatio="xMidYMid meet" version="1.0"><defs><g/><clipPath id="bc3bad1647"><rect x="0" width="366" y="0" height="115"/></clipPath><clipPath id="35b4a2e6b8"><path d="M 261 24 L 278.71875 24 L 278.71875 43 L 261 43 Z M 261 24 " clip-rule="nonzero"/></clipPath><clipPath id="46509c5a09"><path d="M 184.734375 112.28125 L 274.6875 112.28125 L 274.6875 120.527344 L 184.734375 120.527344 Z M 184.734375 112.28125 " clip-rule="nonzero"/></clipPath></defs><g transform="matrix(1, 0, 0, 1, 4, 15)"><g clip-path="url(#bc3bad1647)"><g fill="#ffffff" fill-opacity="1"><g transform="translate(0.576678, 89.513239)"><g><path d="M 25.28125 1.09375 C 22.425781 1.09375 19.664062 0.5625 17 -0.5 C 14.332031 -1.5625 11.984375 -3.09375 9.953125 -5.09375 C 7.921875 -7.09375 6.296875 -9.5625 5.078125 -12.5 C 3.867188 -15.4375 3.265625 -18.785156 3.265625 -22.546875 C 3.265625 -26.304688 3.867188 -29.65625 5.078125 -32.59375 C 6.296875 -35.53125 7.921875 -38 9.953125 -40 C 11.984375 -42 14.332031 -43.53125 17 -44.59375 C 19.664062 -45.65625 22.425781 -46.1875 25.28125 -46.1875 C 28.125 -46.1875 30.863281 -45.65625 33.5 -44.59375 C 36.132812 -43.53125 38.46875 -42 40.5 -40 C 42.53125 -38 44.148438 -35.53125 45.359375 -32.59375 C 46.578125 -29.65625 47.1875 -26.304688 47.1875 -22.546875 C 47.1875 -18.785156 46.578125 -15.4375 45.359375 -12.5 C 44.148438 -9.5625 42.53125 -7.09375 40.5 -5.09375 C 38.46875 -3.09375 36.132812 -1.5625 33.5 -0.5 C 30.863281 0.5625 28.125 1.09375 25.28125 1.09375 Z M 25.28125 -9.734375 C 28.007812 -9.734375 30.066406 -10.882812 31.453125 -13.1875 C 32.847656 -15.488281 33.546875 -18.609375 33.546875 -22.546875 C 33.546875 -26.484375 32.847656 -29.601562 31.453125 -31.90625 C 30.066406 -34.21875 28.007812 -35.375 25.28125 -35.375 C 22.488281 -35.375 20.410156 -34.21875 19.046875 -31.90625 C 17.679688 -29.601562 17 -26.484375 17 -22.546875 C 17 -18.609375 17.679688 -15.488281 19.046875 -13.1875 C 20.410156 -10.882812 22.488281 -9.734375 25.28125 -9.734375 Z M 25.28125 -9.734375 "/></g></g></g><g fill="#ffffff" fill-opacity="1"><g transform="translate(47.309804, 89.513239)"><g><path d="M 5.90625 0 L 5.90625 -45.09375 L 16.828125 -45.09375 L 17.734375 -39.375 L 18.09375 -39.375 C 20.03125 -41.1875 22.148438 -42.773438 24.453125 -44.140625 C 26.753906 -45.503906 29.453125 -46.1875 32.546875 -46.1875 C 37.460938 -46.1875 41.023438 -44.578125 43.234375 -41.359375 C 45.441406 -38.148438 46.546875 -33.695312 46.546875 -28 L 46.546875 0 L 33.1875 0 L 33.1875 -26.28125 C 33.1875 -29.550781 32.742188 -31.789062 31.859375 -33 C 30.984375 -34.21875 29.578125 -34.828125 27.640625 -34.828125 C 25.941406 -34.828125 24.484375 -34.445312 23.265625 -33.6875 C 22.054688 -32.925781 20.726562 -31.847656 19.28125 -30.453125 L 19.28125 0 Z M 5.90625 0 "/></g></g></g><g fill="#ffffff" fill-opacity="1"><g transform="translate(95.588581, 89.513239)"><g><path d="M 26.09375 1.09375 C 22.882812 1.09375 19.882812 0.5625 17.09375 -0.5 C 14.300781 -1.5625 11.875 -3.109375 9.8125 -5.140625 C 7.757812 -7.171875 6.15625 -9.640625 5 -12.546875 C 3.84375 -15.453125 3.265625 -18.785156 3.265625 -22.546875 C 3.265625 -26.179688 3.867188 -29.46875 5.078125 -32.40625 C 6.296875 -35.351562 7.890625 -37.84375 9.859375 -39.875 C 11.828125 -41.90625 14.082031 -43.460938 16.625 -44.546875 C 19.175781 -45.640625 21.816406 -46.1875 24.546875 -46.1875 C 27.765625 -46.1875 30.566406 -45.640625 32.953125 -44.546875 C 35.347656 -43.460938 37.347656 -41.945312 38.953125 -40 C 40.566406 -38.0625 41.765625 -35.773438 42.546875 -33.140625 C 43.335938 -30.503906 43.734375 -27.640625 43.734375 -24.546875 C 43.734375 -23.335938 43.671875 -22.1875 43.546875 -21.09375 C 43.429688 -20 43.3125 -19.179688 43.1875 -18.640625 L 16.1875 -18.640625 C 16.789062 -15.367188 18.132812 -12.957031 20.21875 -11.40625 C 22.3125 -9.863281 24.875 -9.09375 27.90625 -9.09375 C 31.125 -9.09375 34.367188 -10.09375 37.640625 -12.09375 L 42.09375 -4 C 39.789062 -2.425781 37.226562 -1.179688 34.40625 -0.265625 C 31.59375 0.640625 28.820312 1.09375 26.09375 1.09375 Z M 16.09375 -27.453125 L 32.375 -27.453125 C 32.375 -30.003906 31.796875 -32.066406 30.640625 -33.640625 C 29.484375 -35.210938 27.546875 -36 24.828125 -36 C 22.703125 -36 20.835938 -35.300781 19.234375 -33.90625 C 17.628906 -32.519531 16.582031 -30.367188 16.09375 -27.453125 Z M 16.09375 -27.453125 "/></g></g></g><g fill="#ffffff" fill-opacity="1"><g transform="translate(138.957647, 89.513239)"><g><path d="M 5.90625 16.734375 L 5.90625 -45.09375 L 16.828125 -45.09375 L 17.734375 -40.640625 L 18.09375 -40.640625 C 19.851562 -42.210938 21.835938 -43.53125 24.046875 -44.59375 C 26.265625 -45.65625 28.550781 -46.1875 30.90625 -46.1875 C 33.632812 -46.1875 36.085938 -45.640625 38.265625 -44.546875 C 40.453125 -43.460938 42.300781 -41.921875 43.8125 -39.921875 C 45.332031 -37.921875 46.5 -35.507812 47.3125 -32.6875 C 48.132812 -29.863281 48.546875 -26.726562 48.546875 -23.28125 C 48.546875 -19.394531 48.015625 -15.953125 46.953125 -12.953125 C 45.898438 -9.953125 44.476562 -7.40625 42.6875 -5.3125 C 40.894531 -3.226562 38.863281 -1.640625 36.59375 -0.546875 C 34.320312 0.546875 31.972656 1.09375 29.546875 1.09375 C 27.609375 1.09375 25.726562 0.6875 23.90625 -0.125 C 22.09375 -0.945312 20.398438 -2.117188 18.828125 -3.640625 L 19.28125 3.546875 L 19.28125 16.734375 Z M 26.453125 -9.8125 C 28.753906 -9.8125 30.722656 -10.859375 32.359375 -12.953125 C 34.003906 -15.046875 34.828125 -18.425781 34.828125 -23.09375 C 34.828125 -31.21875 32.21875 -35.28125 27 -35.28125 C 24.394531 -35.28125 21.820312 -33.914062 19.28125 -31.1875 L 19.28125 -12.734375 C 20.488281 -11.640625 21.695312 -10.878906 22.90625 -10.453125 C 24.125 -10.023438 25.304688 -9.8125 26.453125 -9.8125 Z M 26.453125 -9.8125 "/></g></g></g><g fill="#ffffff" fill-opacity="1"><g transform="translate(187.327339, 89.513239)"><g><path d="M 17.28125 1.09375 C 15.21875 1.09375 13.351562 0.742188 11.6875 0.046875 C 10.019531 -0.648438 8.609375 -1.617188 7.453125 -2.859375 C 6.304688 -4.109375 5.410156 -5.550781 4.765625 -7.1875 C 4.128906 -8.820312 3.8125 -10.609375 3.8125 -12.546875 C 3.8125 -17.273438 5.8125 -20.972656 9.8125 -23.640625 C 13.820312 -26.304688 20.28125 -28.09375 29.1875 -29 C 29.0625 -31 28.46875 -32.585938 27.40625 -33.765625 C 26.351562 -34.953125 24.582031 -35.546875 22.09375 -35.546875 C 20.15625 -35.546875 18.226562 -35.179688 16.3125 -34.453125 C 14.40625 -33.734375 12.363281 -32.734375 10.1875 -31.453125 L 5.359375 -40.28125 C 8.273438 -42.039062 11.320312 -43.460938 14.5 -44.546875 C 17.6875 -45.640625 21.066406 -46.1875 24.640625 -46.1875 C 30.460938 -46.1875 34.898438 -44.535156 37.953125 -41.234375 C 41.015625 -37.929688 42.546875 -32.796875 42.546875 -25.828125 L 42.546875 0 L 31.640625 0 L 30.734375 -4.640625 L 30.375 -4.640625 C 28.425781 -2.941406 26.390625 -1.5625 24.265625 -0.5 C 22.148438 0.5625 19.820312 1.09375 17.28125 1.09375 Z M 21.828125 -9.28125 C 23.335938 -9.28125 24.640625 -9.613281 25.734375 -10.28125 C 26.828125 -10.945312 27.976562 -11.882812 29.1875 -13.09375 L 29.1875 -21 C 24.457031 -20.332031 21.179688 -19.363281 19.359375 -18.09375 C 17.546875 -16.820312 16.640625 -15.304688 16.640625 -13.546875 C 16.640625 -12.085938 17.109375 -11.007812 18.046875 -10.3125 C 18.984375 -9.625 20.242188 -9.28125 21.828125 -9.28125 Z M 21.828125 -9.28125 "/></g></g></g><g fill="#ffffff" fill-opacity="1"><g transform="translate(231.514674, 89.513239)"><g><path d="M 5.90625 0 L 5.90625 -45.09375 L 19.28125 -45.09375 L 19.28125 0 Z M 12.546875 -51.734375 C 10.304688 -51.734375 8.457031 -52.382812 7 -53.6875 C 5.539062 -54.988281 4.8125 -56.671875 4.8125 -58.734375 C 4.8125 -60.796875 5.539062 -62.460938 7 -63.734375 C 8.457031 -65.003906 10.304688 -65.640625 12.546875 -65.640625 C 14.847656 -65.640625 16.710938 -65.003906 18.140625 -63.734375 C 19.566406 -62.460938 20.28125 -60.796875 20.28125 -58.734375 C 20.28125 -56.671875 19.566406 -54.988281 18.140625 -53.6875 C 16.710938 -52.382812 14.847656 -51.734375 12.546875 -51.734375 Z M 12.546875 -51.734375 "/></g></g></g><g fill="#ffffff" fill-opacity="1"><g transform="translate(252.880972, 89.513239)"><g><path d="M 22 19.1875 C 19.332031 19.1875 16.863281 18.957031 14.59375 18.5 C 12.320312 18.050781 10.320312 17.367188 8.59375 16.453125 C 6.863281 15.546875 5.515625 14.363281 4.546875 12.90625 C 3.578125 11.457031 3.09375 9.734375 3.09375 7.734375 C 3.09375 4.085938 5.242188 1.054688 9.546875 -1.359375 L 9.546875 -1.734375 C 8.335938 -2.515625 7.335938 -3.507812 6.546875 -4.71875 C 5.753906 -5.9375 5.359375 -7.484375 5.359375 -9.359375 C 5.359375 -10.992188 5.84375 -12.554688 6.8125 -14.046875 C 7.789062 -15.535156 9.003906 -16.796875 10.453125 -17.828125 L 10.453125 -18.1875 C 8.878906 -19.28125 7.46875 -20.835938 6.21875 -22.859375 C 4.976562 -24.890625 4.359375 -27.238281 4.359375 -29.90625 C 4.359375 -32.632812 4.875 -35.015625 5.90625 -37.046875 C 6.9375 -39.078125 8.316406 -40.773438 10.046875 -42.140625 C 11.773438 -43.503906 13.757812 -44.519531 16 -45.1875 C 18.238281 -45.851562 20.570312 -46.1875 23 -46.1875 C 25.664062 -46.1875 28 -45.820312 30 -45.09375 L 46.46875 -45.09375 L 46.46875 -35.375 L 39.28125 -35.375 C 39.707031 -34.707031 40.054688 -33.859375 40.328125 -32.828125 C 40.597656 -31.796875 40.734375 -30.671875 40.734375 -29.453125 C 40.734375 -26.847656 40.273438 -24.59375 39.359375 -22.6875 C 38.453125 -20.78125 37.195312 -19.203125 35.59375 -17.953125 C 33.988281 -16.710938 32.109375 -15.789062 29.953125 -15.1875 C 27.804688 -14.582031 25.488281 -14.28125 23 -14.28125 C 21.238281 -14.28125 19.421875 -14.582031 17.546875 -15.1875 C 16.941406 -14.695312 16.515625 -14.207031 16.265625 -13.71875 C 16.023438 -13.238281 15.90625 -12.601562 15.90625 -11.8125 C 15.90625 -10.664062 16.40625 -9.816406 17.40625 -9.265625 C 18.40625 -8.722656 20.179688 -8.453125 22.734375 -8.453125 L 30 -8.453125 C 35.582031 -8.453125 39.84375 -7.554688 42.78125 -5.765625 C 45.71875 -3.984375 47.1875 -1.0625 47.1875 3 C 47.1875 5.363281 46.59375 7.53125 45.40625 9.5 C 44.226562 11.46875 42.546875 13.164062 40.359375 14.59375 C 38.179688 16.019531 35.546875 17.140625 32.453125 17.953125 C 29.367188 18.773438 25.882812 19.1875 22 19.1875 Z M 23 -22.359375 C 24.757812 -22.359375 26.226562 -22.976562 27.40625 -24.21875 C 28.59375 -25.46875 29.1875 -27.363281 29.1875 -29.90625 C 29.1875 -32.269531 28.59375 -34.070312 27.40625 -35.3125 C 26.226562 -36.5625 24.757812 -37.1875 23 -37.1875 C 21.238281 -37.1875 19.769531 -36.578125 18.59375 -35.359375 C 17.414062 -34.148438 16.828125 -32.332031 16.828125 -29.90625 C 16.828125 -27.363281 17.414062 -25.46875 18.59375 -24.21875 C 19.769531 -22.976562 21.238281 -22.359375 23 -22.359375 Z M 24.09375 10.8125 C 27.125 10.8125 29.609375 10.28125 31.546875 9.21875 C 33.484375 8.164062 34.453125 6.851562 34.453125 5.28125 C 34.453125 3.882812 33.859375 2.941406 32.671875 2.453125 C 31.492188 1.972656 29.785156 1.734375 27.546875 1.734375 L 22.90625 1.734375 C 21.332031 1.734375 20.0625 1.6875 19.09375 1.59375 C 18.125 1.5 17.273438 1.363281 16.546875 1.1875 C 14.910156 2.632812 14.09375 4.117188 14.09375 5.640625 C 14.09375 7.335938 15 8.625 16.8125 9.5 C 18.632812 10.375 21.0625 10.8125 24.09375 10.8125 Z M 24.09375 10.8125 "/></g></g></g><g fill="#ffffff" fill-opacity="1"><g transform="translate(297.704756, 89.513239)"><g><path d="M 26.09375 1.09375 C 22.882812 1.09375 19.882812 0.5625 17.09375 -0.5 C 14.300781 -1.5625 11.875 -3.109375 9.8125 -5.140625 C 7.757812 -7.171875 6.15625 -9.640625 5 -12.546875 C 3.84375 -15.453125 3.265625 -18.785156 3.265625 -22.546875 C 3.265625 -26.179688 3.867188 -29.46875 5.078125 -32.40625 C 6.296875 -35.351562 7.890625 -37.84375 9.859375 -39.875 C 11.828125 -41.90625 14.082031 -43.460938 16.625 -44.546875 C 19.175781 -45.640625 21.816406 -46.1875 24.546875 -46.1875 C 27.765625 -46.1875 30.566406 -45.640625 32.953125 -44.546875 C 35.347656 -43.460938 37.347656 -41.945312 38.953125 -40 C 40.566406 -38.0625 41.765625 -35.773438 42.546875 -33.140625 C 43.335938 -30.503906 43.734375 -27.640625 43.734375 -24.546875 C 43.734375 -23.335938 43.671875 -22.1875 43.546875 -21.09375 C 43.429688 -20 43.3125 -19.179688 43.1875 -18.640625 L 16.1875 -18.640625 C 16.789062 -15.367188 18.132812 -12.957031 20.21875 -11.40625 C 22.3125 -9.863281 24.875 -9.09375 27.90625 -9.09375 C 31.125 -9.09375 34.367188 -10.09375 37.640625 -12.09375 L 42.09375 -4 C 39.789062 -2.425781 37.226562 -1.179688 34.40625 -0.265625 C 31.59375 0.640625 28.820312 1.09375 26.09375 1.09375 Z M 16.09375 -27.453125 L 32.375 -27.453125 C 32.375 -30.003906 31.796875 -32.066406 30.640625 -33.640625 C 29.484375 -35.210938 27.546875 -36 24.828125 -36 C 22.703125 -36 20.835938 -35.300781 19.234375 -33.90625 C 17.628906 -32.519531 16.582031 -30.367188 16.09375 -27.453125 Z M 16.09375 -27.453125 "/></g></g></g><g fill="#ffffff" fill-opacity="1"><g transform="translate(341.073823, 89.513239)"><g><path d="M 13.640625 1.09375 C 11.335938 1.09375 9.410156 0.289062 7.859375 -1.3125 C 6.316406 -2.925781 5.546875 -4.914062 5.546875 -7.28125 C 5.546875 -9.695312 6.316406 -11.707031 7.859375 -13.3125 C 9.410156 -14.925781 11.335938 -15.734375 13.640625 -15.734375 C 15.941406 -15.734375 17.863281 -14.925781 19.40625 -13.3125 C 20.957031 -11.707031 21.734375 -9.695312 21.734375 -7.28125 C 21.734375 -4.914062 20.957031 -2.925781 19.40625 -1.3125 C 17.863281 0.289062 15.941406 1.09375 13.640625 1.09375 Z M 13.640625 1.09375 "/></g></g></g></g></g><path fill="#ffffff" d="M 265.929688 46.355469 C 265.890625 46.320312 265.847656 46.292969 265.800781 46.269531 L 265.769531 46.253906 C 265.757812 46.25 265.746094 46.242188 265.734375 46.238281 L 265.699219 46.226562 C 265.6875 46.222656 265.683594 46.21875 265.675781 46.21875 C 262.804688 45.269531 259.949219 44.277344 257.117188 43.222656 C 254.96875 42.433594 253.183594 40.714844 252.328125 38.589844 C 252.265625 38.433594 252.207031 38.269531 252.148438 38.105469 C 251.417969 35.921875 250.46875 33.019531 249.738281 30.820312 C 249.65625 30.574219 249.414062 29.859375 249.335938 29.625 C 249.335938 29.625 249.304688 29.527344 249.304688 29.527344 C 249.230469 29.28125 249.070312 29.0625 248.84375 28.933594 C 248.484375 28.71875 247.996094 28.757812 247.675781 29.027344 C 247.550781 29.128906 247.453125 29.257812 247.390625 29.402344 C 247.089844 30.148438 246.796875 30.90625 246.503906 31.652344 C 245.710938 33.714844 244.890625 35.875 244.117188 37.941406 C 243.75 38.914062 243.199219 39.816406 242.496094 40.582031 C 241.710938 41.449219 240.730469 42.140625 239.652344 42.59375 C 239.390625 42.707031 238.78125 42.929688 238.5 43.039062 C 236.179688 43.921875 233.15625 45.066406 230.847656 45.953125 C 230.199219 46.21875 230.003906 47.046875 230.457031 47.578125 C 230.574219 47.71875 230.734375 47.824219 230.90625 47.882812 C 233.738281 48.890625 236.628906 49.882812 239.472656 50.851562 C 239.980469 51.027344 240.476562 51.253906 240.945312 51.523438 C 242.363281 52.34375 243.523438 53.59375 244.234375 55.066406 C 244.339844 55.285156 244.4375 55.503906 244.523438 55.726562 C 245.578125 58.503906 246.609375 61.3125 247.582031 64.117188 C 247.605469 64.179688 247.636719 64.273438 247.660156 64.332031 C 247.835938 64.734375 248.324219 64.886719 248.707031 64.691406 C 248.835938 64.625 248.945312 64.519531 249.015625 64.394531 L 249.035156 64.359375 C 249.042969 64.347656 249.046875 64.335938 249.050781 64.324219 L 249.066406 64.289062 L 249.089844 64.238281 C 250.195312 61.453125 251.351562 58.632812 252.4375 55.84375 C 252.628906 55.351562 252.867188 54.878906 253.148438 54.429688 C 253.84375 53.3125 254.808594 52.367188 255.9375 51.6875 C 256.300781 51.464844 256.6875 51.273438 257.082031 51.109375 C 259.769531 50.078125 262.503906 48.972656 265.167969 47.871094 L 265.558594 47.710938 L 265.652344 47.671875 L 265.703125 47.652344 C 265.820312 47.605469 265.933594 47.527344 266.019531 47.425781 C 266.289062 47.113281 266.246094 46.613281 265.929688 46.355469 Z M 265.929688 46.355469 " fill-opacity="1" fill-rule="nonzero"/><path fill="#ffffff" d="M 248.199219 22.375 C 248.246094 22.410156 248.296875 22.4375 248.351562 22.453125 C 249.160156 22.730469 249.972656 22.992188 250.78125 23.257812 C 251.160156 23.382812 251.527344 23.550781 251.863281 23.769531 C 252.628906 24.257812 253.242188 24.980469 253.605469 25.816406 C 253.722656 26.097656 253.820312 26.390625 253.925781 26.683594 C 254.140625 27.285156 254.34375 27.890625 254.539062 28.5 C 254.558594 28.554688 254.589844 28.609375 254.632812 28.648438 C 254.808594 28.816406 255.097656 28.765625 255.210938 28.558594 C 255.558594 27.753906 255.894531 26.949219 256.222656 26.136719 C 256.691406 24.960938 257.613281 23.980469 258.75 23.429688 C 258.816406 23.398438 258.886719 23.363281 258.953125 23.335938 C 259.386719 23.152344 260.28125 22.761719 260.730469 22.566406 L 261.300781 22.320312 C 261.324219 22.308594 261.359375 22.292969 261.378906 22.285156 C 261.574219 22.191406 261.605469 21.914062 261.4375 21.785156 C 261.40625 21.761719 261.375 21.746094 261.339844 21.734375 C 260.527344 21.476562 259.71875 21.199219 258.921875 20.902344 C 257.671875 20.445312 256.664062 19.414062 256.21875 18.167969 C 256.183594 18.074219 256.152344 17.976562 256.125 17.882812 C 255.875 17.070312 255.621094 16.222656 255.34375 15.417969 C 255.152344 14.992188 254.546875 15.019531 254.382812 15.449219 C 254.148438 16.03125 253.90625 16.679688 253.675781 17.265625 C 253.539062 17.625 253.402344 18.03125 253.222656 18.371094 C 252.707031 19.371094 251.824219 20.179688 250.773438 20.597656 C 250.066406 20.878906 249.042969 21.265625 248.339844 21.546875 C 248.265625 21.574219 248.199219 21.621094 248.144531 21.679688 C 247.964844 21.878906 247.988281 22.207031 248.199219 22.375 Z M 248.199219 22.375 " fill-opacity="1" fill-rule="nonzero"/><g clip-path="url(#35b4a2e6b8)"><path fill="#ffffff" d="M 278.675781 33.160156 C 277.648438 32.84375 276.625 32.503906 275.617188 32.125 C 274.066406 31.558594 272.820312 30.261719 272.292969 28.695312 C 272.203125 28.445312 272.046875 27.859375 271.96875 27.59375 C 271.746094 26.832031 271.519531 26.074219 271.277344 25.316406 C 271.269531 25.292969 271.257812 25.261719 271.246094 25.238281 C 270.960938 24.605469 270.066406 24.652344 269.828125 25.296875 C 269.425781 26.285156 269.042969 27.277344 268.664062 28.273438 C 268.578125 28.492188 268.484375 28.707031 268.375 28.914062 C 267.835938 29.953125 266.980469 30.828125 265.949219 31.382812 C 265.792969 31.46875 265.632812 31.542969 265.46875 31.613281 C 265.351562 31.664062 264.722656 31.914062 264.582031 31.964844 C 264.027344 32.183594 262.832031 32.652344 262.296875 32.871094 C 262.035156 32.992188 261.867188 33.28125 261.894531 33.566406 C 261.910156 33.839844 262.105469 34.089844 262.367188 34.171875 C 263.378906 34.507812 264.398438 34.824219 265.417969 35.144531 C 265.890625 35.292969 266.34375 35.5 266.765625 35.765625 C 267.71875 36.363281 268.488281 37.261719 268.933594 38.296875 C 268.972656 38.378906 269.007812 38.46875 269.039062 38.558594 C 269.40625 39.558594 269.742188 40.570312 270.0625 41.589844 C 270.066406 41.613281 270.082031 41.652344 270.089844 41.675781 C 270.226562 42.046875 270.71875 42.125 270.972656 41.828125 C 271.019531 41.78125 271.050781 41.71875 271.074219 41.660156 L 271.113281 41.570312 C 271.527344 40.621094 271.945312 39.675781 272.335938 38.71875 C 272.429688 38.496094 272.53125 38.28125 272.648438 38.070312 C 272.761719 37.863281 272.886719 37.660156 273.023438 37.464844 C 273.695312 36.511719 274.625 35.746094 275.6875 35.265625 C 276.648438 34.84375 277.6875 34.359375 278.648438 33.929688 L 278.6875 33.910156 C 278.742188 33.886719 278.796875 33.847656 278.835938 33.796875 C 279.015625 33.589844 278.933594 33.253906 278.675781 33.160156 Z M 278.675781 33.160156 " fill-opacity="1" fill-rule="nonzero"/></g><g clip-path="url(#46509c5a09)"><path fill="#ffffff" d="M 189.785156 116.253906 C 196.640625 115.292969 205.289062 114.566406 215.730469 114.070312 C 225.277344 113.628906 231.253906 113.378906 233.664062 113.324219 C 259.546875 112.804688 272.917969 112.464844 273.78125 112.3125 C 273.632812 112.339844 273.511719 112.425781 273.417969 112.574219 L 273.980469 113.515625 L 263.332031 114.289062 L 263.320312 114.289062 L 244.21875 115.3125 L 244.222656 115.3125 C 242.292969 115.429688 238.460938 115.707031 232.734375 116.140625 L 232.738281 116.140625 L 232.734375 116.140625 L 232.734375 116.144531 C 228.75 116.445312 225.535156 116.722656 223.082031 116.976562 L 223.085938 116.976562 C 215.863281 117.769531 204.128906 118.984375 187.878906 120.628906 L 187.871094 120.628906 C 186.570312 120.746094 185.792969 120.792969 185.53125 120.765625 C 185.152344 120.726562 184.945312 120.535156 184.914062 120.1875 C 184.882812 119.867188 185.035156 119.644531 185.371094 119.519531 C 185.699219 119.394531 187.054688 119.140625 189.433594 118.761719 C 189.441406 118.757812 189.449219 118.757812 189.457031 118.757812 C 200.648438 117.402344 216.066406 116.941406 235.714844 117.375 C 236.054688 117.382812 236.324219 117.664062 236.316406 118 C 236.308594 118.339844 236.027344 118.609375 235.6875 118.601562 C 216.097656 118.171875 200.738281 118.628906 189.605469 119.976562 L 189.628906 119.972656 C 187.328125 120.34375 186.054688 120.574219 185.800781 120.667969 C 186.050781 120.574219 186.164062 120.378906 186.136719 120.078125 C 186.105469 119.75 185.945312 119.574219 185.65625 119.542969 C 185.835938 119.5625 186.539062 119.515625 187.761719 119.40625 L 187.753906 119.40625 C 204.003906 117.761719 215.738281 116.546875 222.949219 115.753906 L 222.957031 115.753906 C 225.417969 115.5 228.648438 115.222656 232.640625 114.917969 L 232.636719 114.917969 L 232.640625 114.917969 C 238.375 114.480469 242.210938 114.203125 244.148438 114.085938 L 244.152344 114.082031 L 263.253906 113.0625 L 263.242188 113.0625 L 273.890625 112.289062 C 274.121094 112.273438 274.34375 112.390625 274.464844 112.589844 C 274.582031 112.789062 274.578125 113.039062 274.453125 113.234375 C 274.351562 113.390625 274.199219 113.488281 273.996094 113.523438 C 273.070312 113.6875 259.636719 114.03125 233.6875 114.554688 L 233.691406 114.554688 C 231.292969 114.609375 225.324219 114.855469 215.785156 115.296875 L 215.789062 115.296875 C 205.386719 115.792969 196.773438 116.515625 189.953125 117.472656 C 189.617188 117.519531 189.308594 117.285156 189.261719 116.949219 C 189.214844 116.613281 189.449219 116.300781 189.785156 116.253906 Z M 189.785156 116.253906 " fill-opacity="0.996" fill-rule="nonzero"/></g></svg>